<svg width="21" height="32" viewBox="0 0 21 32" fill="none" xmlns="http://www.w3.org/2000/svg">
<path d="M0.995786 2.0534C1.23102 2.0534 2.34304 2.18846 3.89289 3.23182C4.53219 3.66965 5.27278 4.27631 6.0145 5.08444L16.2196 16.4691L6.04827 27.8527C5.27278 28.6608 4.56595 29.2675 3.92553 29.7053C2.37681 30.7498 1.26479 30.8849 1.02955 30.8849C1.80391 31.4229 2.81464 31.8945 3.92553 31.9282C5.03755 31.8945 6.04827 31.4229 6.82263 30.8849C7.90089 30.1431 8.57395 29.2675 8.57395 29.2675L20.1263 16.4354L8.57395 3.60325C8.57395 3.60325 7.90089 2.72646 6.82263 1.98587C6.04827 1.44674 5.03755 0.975146 3.92553 0.94138C2.78087 1.04268 1.80391 1.51427 0.995786 2.0534Z" fill="#333333"/>
</svg>
