<svg width="21" height="32" viewBox="0 0 21 32" fill="none" xmlns="http://www.w3.org/2000/svg">
<path d="M20.1263 30.8162C19.8911 30.8162 18.7791 30.6812 17.2292 29.6378C16.5899 29.2 15.8493 28.5933 15.1076 27.7852L4.90249 16.4005L15.0739 5.01693C15.8493 4.20881 16.5562 3.60215 17.1966 3.16432C18.7453 2.11983 19.8573 1.98477 20.0926 1.98477C19.3182 1.44677 18.3075 0.975173 17.1966 0.941407C16.0846 0.975173 15.0739 1.44677 14.2995 1.98477C13.2212 2.72649 12.5482 3.60215 12.5482 3.60215L0.995789 16.4343L12.5482 29.2664C12.5482 29.2664 13.2212 30.1432 14.2995 30.8838C15.0739 31.4229 16.0846 31.8945 17.1966 31.9282C18.3413 31.827 19.3182 31.3554 20.1263 30.8162Z" fill="#14A2E4"/>
</svg>
