<svg width="439" height="294" viewBox="0 0 439 294" version="1.1" xmlns="http://www.w3.org/2000/svg" xmlns:xlink="http://www.w3.org/1999/xlink">
<g id="Canvas" fill="none">
<g id="Vector">
<path d="M 287.166 278.739C 261.961 278.739 241.458 258.202 241.458 232.956C 241.458 207.71 261.961 187.173 287.166 187.173C 312.371 187.173 332.875 207.71 332.875 232.956C 332.875 258.202 312.371 278.739 287.166 278.739ZM 287.166 202.434C 270.36 202.434 256.694 216.127 256.694 232.956C 256.694 249.786 270.36 263.478 287.166 263.478C 303.972 263.478 317.638 249.786 317.638 232.956C 317.638 216.127 303.972 202.434 287.166 202.434Z" fill="#222222"/>
<path d="M 439.528 263.478L 317.467 263.478L 317.467 248.217L 424.292 248.217L 424.292 217.695L 317.467 217.695L 317.467 202.434L 439.528 202.434L 439.528 263.478Z" fill="#222222"/>
<path d="M 305.438 193.999L 281.929 129.304L 267.616 134.522L 291.125 199.217L 305.438 193.999Z" fill="#222222"/>
<path d="M 262.482 209.659L 238.973 144.964L 224.66 150.182L 248.169 214.876L 262.482 209.659Z" fill="#222222"/>
<path d="M 58.9881 185.24C 54.6583 185.24 50.5219 183.385 47.6353 180.151L 3.88344 131.138C 0.505892 127.36 -0.773707 122.166 0.461255 117.244C 1.69622 112.33 5.27463 108.358 10.0285 106.626L 300.118 0.872283C 307.803 -1.94443 316.857 2.31417 319.647 9.99678L 326.38 28.5327L 340.188 34.982C 343.87 36.6996 346.667 39.7585 348.066 43.5886L 354.806 62.132C 357.678 70.0419 353.594 78.8161 345.708 81.6925L 64.1957 184.316C 62.5293 184.927 60.7736 185.24 58.9881 185.24ZM 305.326 15.2129L 15.2362 120.966L 58.9881 169.975L 340.493 67.3556L 333.752 48.8159L 319.937 42.3629C 316.262 40.649 313.465 37.5901 312.066 33.76L 305.326 15.2129Z" fill="#222222"/>
<path d="M 100.374 202.635C 94.1546 202.635 88.2923 198.787 86.0381 192.602L 78.2266 171.085L 92.5402 165.869L 100.352 187.378L 293.638 116.916L 285.827 95.403L 300.14 90.1794L 307.959 111.692C 310.831 119.606 306.739 128.38 298.846 131.256L 105.567 201.715C 103.856 202.341 102.1 202.635 100.374 202.635Z" fill="#222222"/>
<path d="M 431.909 187.173C 372.289 187.173 332.703 152.579 314.268 84.3484L 328.969 80.3618C 345.395 141.111 380.026 171.912 431.909 171.912L 431.909 187.173Z" fill="#222222"/>
<path d="M 470 294L 424.292 294L 424.292 149.021L 470 149.021L 470 294ZM 439.528 278.739L 454.764 278.739L 454.764 164.282L 439.528 164.282L 439.528 278.739Z" fill="#222222"/>
</g>
</g>
</svg>

