<svg width="229" height="229" viewBox="0 0 229 229" fill="none" xmlns="http://www.w3.org/2000/svg">
<path d="M25.4444 0H203.556C210.304 0 216.776 2.68075 221.547 7.4525C226.319 12.2243 229 18.6962 229 25.4444V203.556C229 210.304 226.319 216.776 221.547 221.547C216.776 226.319 210.304 229 203.556 229H25.4444C18.6962 229 12.2243 226.319 7.4525 221.547C2.68075 216.776 0 210.304 0 203.556V25.4444C0 18.6962 2.68075 12.2243 7.4525 7.4525C12.2243 2.68075 18.6962 0 25.4444 0ZM190.833 25.4444H159.028C147.218 25.4444 135.892 30.1358 127.542 38.4863C119.191 46.8369 114.5 58.1627 114.5 69.9722V101.778H89.0556V139.944H114.5V229H152.667V139.944H190.833V101.778H152.667V76.3333C152.667 72.9592 154.007 69.7232 156.393 67.3374C158.779 64.9515 162.015 63.6111 165.389 63.6111H190.833V25.4444Z" fill="white"/>
</svg>
