<svg width="343" height="143" viewBox="0 0 343 143" version="1.1" xmlns="http://www.w3.org/2000/svg" xmlns:xlink="http://www.w3.org/1999/xlink">
<g id="Canvas" fill="none">
<g id="Vector">
<path d="M 71.4422 143C 32.0503 143 0 110.927 0 71.5C 0 32.0735 32.0503 0 71.4422 0C 110.834 0 142.884 32.0735 142.884 71.5C 142.884 110.927 110.834 143 71.4422 143ZM 71.4422 11C 38.1093 11 10.9911 38.1401 10.9911 71.5C 10.9911 104.86 38.1093 132 71.4422 132C 104.775 132 131.893 104.86 131.893 71.5C 131.893 38.1401 104.775 11 71.4422 11Z" fill="white"/>
<path d="M 310.026 104.5L 289.601 104.5L 274.778 94.6091L 259.955 104.5L 240.141 104.5L 225.318 94.6091L 210.495 104.5L 196.176 104.5L 181.353 94.6091L 166.53 104.5L 131.41 104.5L 131.41 93.5L 163.203 93.5L 181.353 81.3909L 199.504 93.5L 207.167 93.5L 225.318 81.3909L 243.468 93.5L 256.627 93.5L 274.778 81.3909L 292.928 93.5L 305.475 93.5L 327.458 71.5L 305.475 49.5L 131.41 49.5L 131.41 38.5L 310.026 38.5L 343 71.5L 310.026 104.5Z" fill="white"/>
<path d="M 49.46 93.4998C 37.3365 93.4998 27.4778 83.6304 27.4778 71.4998C 27.4778 59.3691 37.3365 49.4998 49.46 49.4998C 61.5835 49.4998 71.4422 59.3691 71.4422 71.4998C 71.4422 83.6304 61.5835 93.4998 49.46 93.4998ZM 49.46 60.4998C 43.4009 60.4998 38.4689 65.4331 38.4689 71.4998C 38.4689 77.5664 43.4009 82.4998 49.46 82.4998C 55.5191 82.4998 60.4511 77.5664 60.4511 71.4998C 60.4511 65.4331 55.5191 60.4998 49.46 60.4998Z" fill="white"/>
<path d="M 296.76 60.5L 153.875 60.5L 153.875 71.5L 296.76 71.5L 296.76 60.5Z" fill="white"/>
</g>
</g>
</svg>

