<svg width="276" height="60" viewBox="0 0 276 60" fill="none" xmlns="http://www.w3.org/2000/svg">
<path d="M64.2197 12.2214H67.8894V5.62961H71.8488V12.2214H77.8362V15.5414H71.8488V25.5013C71.8488 27.1372 72.0903 28.2439 72.6214 28.8694C73.1526 29.4949 73.8768 29.7836 74.7943 29.7836C75.5668 29.7836 76.1945 29.6874 76.6774 29.4468C77.1602 29.2062 77.6914 28.8694 78.1742 28.3882L79.9608 30.794C79.14 31.612 78.2708 32.1894 77.3534 32.5743C76.4843 32.9592 75.422 33.1517 74.1665 33.1517C71.9937 33.1517 70.4003 32.5743 69.3863 31.4195C68.3723 30.2647 67.8894 28.4364 67.8894 25.9825V15.6376H64.2197V12.2214Z" fill="#14A2E4"/>
<path d="M80.0574 22.2294C80.0574 20.7378 80.2988 19.3425 80.8299 18.0434C81.3128 16.7442 82.0371 15.6376 82.9062 14.6753C83.7754 13.713 84.8859 12.9912 86.1414 12.4138C87.3968 11.8365 88.7488 11.5959 90.2456 11.5959C91.9839 11.5959 93.529 11.9327 94.7845 12.6063C96.0399 13.2799 97.0539 14.146 97.8747 15.2527C98.6956 16.3593 99.275 17.6103 99.6613 19.0538C100.048 20.4973 100.241 21.9407 100.241 23.4804H84.1617C84.2099 24.3946 84.4031 25.2126 84.7411 25.9824C85.1274 26.7523 85.6102 27.4259 86.2379 27.9552C86.8656 28.5325 87.5416 28.9656 88.3142 29.2543C89.0868 29.5911 89.9559 29.7354 90.8251 29.7354C92.5633 29.7354 93.9636 29.4467 95.0742 28.8694C96.1847 28.292 97.0056 27.7146 97.4885 27.1372L99.7096 29.543C99.4682 29.7835 99.1302 30.1204 98.6473 30.5534C98.1645 30.9383 97.585 31.3714 96.8125 31.7082C96.0882 32.0931 95.219 32.3818 94.205 32.6705C93.191 32.9592 92.0322 33.1035 90.7768 33.1035C89.1833 33.1035 87.7348 32.8629 86.4311 32.3337C85.1274 31.8044 84.0168 31.0827 83.0511 30.1204C82.0854 29.158 81.4094 28.0033 80.8782 26.656C80.3471 25.3088 80.0574 23.8172 80.0574 22.2294ZM84.0651 20.5935H96.0882C95.9916 19.0057 95.4122 17.6584 94.4465 16.5518C93.4325 15.4451 92.0322 14.9159 90.2456 14.9159C89.3282 14.9159 88.4591 15.0602 87.7348 15.397C87.0105 15.7338 86.3345 16.1187 85.8516 16.648C85.3205 17.1773 84.9342 17.7547 84.6445 18.4764C84.2582 19.15 84.1134 19.8718 84.0651 20.5935Z" fill="#14A2E4"/>
<path d="M101.641 22.3256C101.641 20.834 101.882 19.4387 102.414 18.1395C102.945 16.8404 103.669 15.6857 104.586 14.7234C105.504 13.761 106.663 12.9912 107.966 12.4138C109.27 11.8364 110.719 11.5477 112.312 11.5477C114.05 11.5477 115.547 11.8364 116.851 12.4619C118.155 13.0874 119.265 13.9054 120.231 14.9158L117.624 17.4178C116.996 16.648 116.272 16.0706 115.402 15.6375C114.533 15.2045 113.519 14.9639 112.312 14.9639C111.25 14.9639 110.332 15.1564 109.463 15.5413C108.642 15.9262 107.918 16.4555 107.339 17.1772C106.759 17.8509 106.325 18.6688 106.035 19.5349C105.745 20.4491 105.552 21.3633 105.552 22.3256C105.552 23.2879 105.697 24.2021 106.035 25.0682C106.325 25.9343 106.759 26.7522 107.339 27.4258C107.918 28.0995 108.594 28.6768 109.463 29.0618C110.284 29.4467 111.25 29.6873 112.312 29.6873C113.519 29.6873 114.582 29.4467 115.547 29.0137C116.513 28.5325 117.286 27.9551 117.913 27.1853L120.327 29.7354C119.41 30.7458 118.3 31.5638 116.996 32.1893C115.692 32.8148 114.147 33.1035 112.36 33.1035C110.719 33.1035 109.222 32.8148 107.918 32.2855C106.614 31.7562 105.456 30.9864 104.538 30.0722C103.621 29.1099 102.945 28.0032 102.414 26.656C101.882 25.3569 101.641 23.9134 101.641 22.3256Z" fill="#14A2E4"/>
<path d="M122.211 32.5261V3.36809H126.17V15.2045C126.411 14.8677 126.749 14.4828 127.136 14.0497C127.522 13.6648 128.005 13.2799 128.536 12.9431C129.067 12.6063 129.743 12.3176 130.467 12.077C131.192 11.8364 132.013 11.7402 132.978 11.7402C135.634 11.7402 137.614 12.51 138.869 14.0497C140.173 15.5894 140.801 17.7065 140.801 20.3529V32.5261H136.841V20.6416C136.841 18.765 136.455 17.3697 135.634 16.4555C134.813 15.5894 133.654 15.1083 132.206 15.1083C131.047 15.1083 130.129 15.3488 129.357 15.7819C128.584 16.263 128.005 16.8404 127.522 17.6103C127.087 18.3801 126.749 19.1981 126.556 20.1604C126.363 21.1227 126.267 22.085 126.267 23.0473V32.478H122.211V32.5261Z" fill="#14A2E4"/>
<path d="M144.084 32.5261V3.36809H148.043V15.2045C148.285 14.8677 148.623 14.4828 149.009 14.0497C149.395 13.6648 149.878 13.2799 150.409 12.9431C150.941 12.6063 151.617 12.3176 152.341 12.077C153.065 11.8364 153.886 11.7402 154.852 11.7402C157.507 11.7402 159.487 12.51 160.742 14.0497C162.046 15.5894 162.674 17.7065 162.674 20.3529V32.5261H158.714V20.6416C158.714 18.765 158.328 17.3697 157.507 16.4555C156.687 15.5894 155.528 15.1083 154.079 15.1083C152.92 15.1083 152.003 15.3488 151.23 15.7819C150.458 16.263 149.878 16.8404 149.395 17.6103C148.961 18.3801 148.623 19.1981 148.43 20.1604C148.237 21.1227 148.14 22.085 148.14 23.0473V32.478H144.084V32.5261Z" fill="#14A2E4"/>
<path d="M164.992 22.2294C164.992 20.7378 165.233 19.3425 165.764 18.0434C166.247 16.7442 166.971 15.6376 167.84 14.6753C168.71 13.713 169.82 12.9912 171.076 12.4138C172.331 11.8365 173.683 11.5959 175.18 11.5959C176.918 11.5959 178.463 11.9327 179.719 12.6063C180.974 13.2799 181.988 14.146 182.809 15.2527C183.63 16.3593 184.209 17.6103 184.596 19.0538C184.982 20.4973 185.175 21.9407 185.175 23.4804H169.096C169.144 24.3946 169.337 25.2126 169.675 25.9824C170.062 26.7523 170.544 27.4259 171.172 27.9552C171.8 28.5325 172.476 28.9656 173.248 29.2543C174.021 29.543 174.89 29.7354 175.759 29.7354C177.498 29.7354 178.898 29.4467 180.008 28.8694C181.119 28.292 181.94 27.7146 182.423 27.1372L184.644 29.543C184.402 29.7835 184.064 30.1204 183.582 30.5534C183.099 30.9383 182.519 31.3714 181.747 31.7082C181.022 32.0931 180.153 32.3818 179.139 32.6705C178.125 32.9592 176.966 33.1035 175.711 33.1035C174.118 33.1035 172.669 32.8629 171.365 32.3337C170.062 31.8044 168.951 31.0827 167.985 30.1204C167.068 29.158 166.344 28.0033 165.812 26.656C165.281 25.3088 164.992 23.8172 164.992 22.2294ZM168.999 20.5935H181.022C180.926 19.0057 180.346 17.6584 179.381 16.5518C178.367 15.4451 176.966 14.9159 175.18 14.9159C174.214 14.9159 173.393 15.0602 172.669 15.397C171.945 15.7338 171.269 16.1187 170.786 16.648C170.255 17.1773 169.868 17.7547 169.579 18.4764C169.192 19.15 169.048 19.8718 168.999 20.5935Z" fill="#14A2E4"/>
<path d="M186.334 26.7521C186.334 24.5869 187.106 22.8067 188.652 21.5075C190.197 20.2084 192.37 19.5348 195.267 19.5348C195.75 19.5348 196.232 19.5348 196.764 19.5829C197.295 19.631 197.777 19.631 198.26 19.6792C198.743 19.7273 199.129 19.7273 199.467 19.7754C199.805 19.8235 200.047 19.8235 200.192 19.8716V19.1499C200.192 17.6583 199.709 16.5998 198.791 15.9262C197.874 15.3006 196.619 14.9638 195.025 14.9638C193.48 14.9638 192.225 15.1563 191.356 15.5893C190.438 16.0224 189.714 16.4073 189.086 16.8885L187.251 14.2421C187.589 13.9534 188.024 13.6647 188.507 13.376C188.99 13.0873 189.569 12.7986 190.245 12.5581C190.921 12.3175 191.694 12.125 192.514 11.9326C193.335 11.7401 194.349 11.692 195.46 11.692C198.067 11.692 200.143 12.3175 201.64 13.5685C203.137 14.8195 203.91 16.6479 203.91 18.9574V28.5805C203.91 29.3504 203.91 30.0721 203.91 30.7938C203.91 31.5156 203.91 32.093 203.958 32.6222H200.288L200.192 30.1683C199.419 31.1788 198.454 31.9486 197.198 32.4298C195.943 32.9109 194.687 33.1996 193.335 33.1996C192.514 33.1996 191.645 33.1034 190.824 32.8628C190.004 32.6222 189.231 32.2854 188.555 31.7561C187.879 31.2269 187.3 30.6014 186.913 29.7834C186.575 28.9173 186.334 27.9069 186.334 26.7521ZM190.197 26.6078C190.197 27.7144 190.583 28.5324 191.307 29.1098C192.08 29.6872 193.142 29.9759 194.494 29.9759C195.267 29.9759 195.991 29.8315 196.667 29.591C197.343 29.3504 197.971 28.9655 198.502 28.5324C199.033 28.0994 199.467 27.5701 199.757 26.9927C200.095 26.4153 200.24 25.7898 200.24 25.2124V22.9029C200.143 22.8548 199.902 22.8548 199.564 22.8067C199.226 22.7585 198.84 22.7104 198.405 22.7104C197.971 22.6623 197.488 22.6623 197.005 22.6142C196.522 22.5661 196.039 22.5661 195.556 22.5661C194.446 22.5661 193.528 22.7104 192.852 22.951C192.176 23.1916 191.645 23.5284 191.211 23.9133C190.824 24.2982 190.535 24.7313 190.39 25.2124C190.293 25.7417 190.197 26.1747 190.197 26.6078Z" fill="#14A2E4"/>
<path d="M204.972 12.2213H209.511L215.885 28.0513L222.21 12.2213H226.459L217.719 32.526H213.76L204.972 12.2213Z" fill="#14A2E4"/>
<path d="M226.507 22.2294C226.507 20.7378 226.749 19.3425 227.28 18.0434C227.763 16.7442 228.487 15.6376 229.356 14.6753C230.225 13.713 231.336 12.9912 232.591 12.4138C233.847 11.8365 235.199 11.5959 236.696 11.5959C238.434 11.5959 239.979 11.9327 241.234 12.6063C242.49 13.2799 243.504 14.146 244.325 15.2527C245.146 16.3593 245.725 17.6103 246.111 19.0538C246.498 20.4973 246.691 21.9407 246.691 23.4804H230.612C230.66 24.3946 230.853 25.2126 231.191 25.9824C231.577 26.7523 232.06 27.4259 232.688 27.9552C233.316 28.5325 233.992 28.9656 234.764 29.2543C235.537 29.543 236.406 29.7354 237.275 29.7354C239.013 29.7354 240.414 29.4467 241.524 28.8694C242.635 28.292 243.456 27.7146 243.938 27.1372L246.16 29.543C245.918 29.7835 245.58 30.1204 245.097 30.5534C244.614 30.9383 244.035 31.3714 243.262 31.7082C242.538 32.0931 241.669 32.3818 240.655 32.6705C239.641 32.9592 238.482 33.1035 237.227 33.1035C235.633 33.1035 234.185 32.8629 232.881 32.3337C231.577 31.8044 230.467 31.0827 229.501 30.1204C228.584 29.158 227.859 28.0033 227.328 26.656C226.797 25.3088 226.507 23.8172 226.507 22.2294ZM230.563 20.5935H242.586C242.49 19.0057 241.91 17.6584 240.945 16.5518C239.931 15.4451 238.53 14.9159 236.744 14.9159C235.778 14.9159 234.957 15.0602 234.233 15.397C233.509 15.7338 232.833 16.1187 232.35 16.648C231.819 17.1773 231.432 17.7547 231.143 18.4764C230.708 19.15 230.563 19.8718 230.563 20.5935Z" fill="#14A2E4"/>
<path d="M249.008 12.2213H252.775L252.92 15.2526C253.161 14.9158 253.499 14.5308 253.885 14.0978C254.272 13.6648 254.754 13.2798 255.286 12.943C255.865 12.6062 256.493 12.3175 257.217 12.077C257.941 11.8364 258.81 11.7401 259.728 11.7401C262.384 11.7401 264.363 12.51 265.619 14.0497C266.922 15.5894 267.55 17.7065 267.55 20.3528V32.526H263.591V20.6415C263.591 18.765 263.204 17.3697 262.384 16.4555C261.563 15.5894 260.404 15.1082 258.907 15.1082C257.748 15.1082 256.831 15.3488 256.058 15.7818C255.286 16.263 254.706 16.8404 254.223 17.6102C253.789 18.3801 253.451 19.198 253.258 20.1604C253.064 21.1227 252.968 22.085 252.968 23.0473V32.4779H249.057V16.5998C249.057 15.6856 249.057 14.9158 249.057 14.2422C249.057 13.5685 249.057 12.943 249.008 12.2213Z" fill="#14A2E4"/>
<path d="M271.365 32.5742V28.1476H276V32.5742H271.365Z" fill="#14A2E4"/>
<path d="M42.9258 32.6704C42.9258 33.0072 42.7327 34.595 41.2358 36.8083C40.6081 37.7225 39.739 38.7811 38.5801 39.8396L22.2596 54.4186L5.93913 39.8877C4.78027 38.7811 3.91113 37.7706 3.28342 36.8564C1.78657 34.6431 1.59343 33.0553 1.59343 32.7185C0.820861 33.8252 0.144862 35.2686 0.0965769 36.8564C0.144862 38.4443 0.820861 39.8877 1.59343 40.9944C2.65571 42.5341 3.91114 43.4964 3.91114 43.4964L22.3079 60L40.7047 43.4964C40.7047 43.4964 41.9601 42.5341 43.0224 40.9944C43.795 39.8877 44.471 38.4443 44.5193 36.8564C44.3744 35.2205 43.6984 33.8252 42.9258 32.6704Z" fill="#14A2E4"/>
<path d="M42.9258 19.0056C41.8635 17.4659 40.6081 16.5036 40.6081 16.5036L22.2113 0L3.81455 16.5036C3.81455 16.5036 2.55914 17.4659 1.49686 19.0056C0.724288 20.1123 0.0482855 21.5558 0 23.1436C0.0482855 24.7314 0.724288 26.1748 1.49686 27.2815C2.55914 28.8212 3.81455 29.7835 3.81455 29.7835L4.05598 29.976L22.2596 46.3834L37.3247 32.6704L40.3667 29.9279L40.6081 29.7354C40.6081 29.7354 41.8635 28.7731 42.9258 27.2334C43.6984 26.1267 44.3744 24.6833 44.4227 23.0954C44.3744 21.5558 43.6984 20.1123 42.9258 19.0056ZM38.5318 26.223L37.373 27.2815L22.3079 13.5686L7.14626 27.2334L5.9874 26.1748C4.82855 25.0682 3.95941 24.0578 3.3317 23.1436C3.95941 22.2294 4.82855 21.1708 5.9874 20.1123L22.3079 5.5814L38.6284 20.1123C39.7873 21.2189 40.6564 22.2294 41.2841 23.1436C40.5598 24.0578 39.739 25.1163 38.5318 26.223Z" fill="#14A2E4"/>
<path d="M68.1656 45.2826V48.5131H72.3723V50.4791H68.1656V53.7788H73.5717V55.8141H65.5408V43.2473H73.5717V45.2826H68.1656ZM86.5604 43.2473L81.4847 55.8141H79.1206L74.0448 43.2473H76.1482C76.3741 43.2473 76.5566 43.3021 76.6957 43.4118C76.8406 43.5158 76.9478 43.6515 77.0173 43.8189L79.7464 51.0593C79.8507 51.3307 79.9521 51.6281 80.0506 51.9514C80.1549 52.269 80.2505 52.6038 80.3374 52.956C80.4127 52.6038 80.4939 52.269 80.5808 51.9514C80.6735 51.6281 80.772 51.3307 80.8763 51.0593L83.588 43.8189C83.6459 43.6746 83.7473 43.5447 83.8922 43.4292C84.0428 43.3079 84.2282 43.2473 84.4484 43.2473H86.5604ZM90.3524 45.2826V48.5131H94.5591V50.4791H90.3524V53.7788H95.7585V55.8141H87.7277V43.2473H95.7585V45.2826H90.3524ZM108.513 43.2473V55.8141H107.165C106.963 55.8141 106.792 55.7824 106.653 55.7188C106.514 55.6496 106.377 55.5341 106.244 55.3724L99.9603 47.4045C99.9776 47.6066 99.9892 47.8058 99.995 48.0021C100.007 48.1984 100.012 48.3803 100.012 48.5477V55.8141H97.7092V43.2473H99.0824C99.1925 43.2473 99.2852 43.2531 99.3605 43.2646C99.4417 43.2704 99.5141 43.2906 99.5778 43.3252C99.6416 43.3541 99.7024 43.3945 99.7604 43.4465C99.8183 43.4985 99.882 43.5677 99.9516 43.6544L106.279 51.6569C106.256 51.4375 106.238 51.2268 106.227 51.0247C106.215 50.8168 106.209 50.6205 106.209 50.4358V43.2473H108.513ZM120.08 45.3432H116.395V55.8141H113.779V45.3432H110.093V43.2473H120.08V45.3432ZM128.459 45.655C128.378 45.7878 128.294 45.886 128.207 45.9495C128.126 46.0072 128.018 46.0361 127.885 46.0361C127.758 46.0361 127.619 45.9928 127.468 45.9062C127.323 45.8138 127.152 45.7156 126.955 45.6117C126.758 45.5078 126.532 45.4125 126.277 45.3259C126.022 45.2335 125.724 45.1873 125.382 45.1873C124.779 45.1873 124.327 45.323 124.026 45.5944C123.725 45.86 123.574 46.2093 123.574 46.6423C123.574 46.9195 123.655 47.1504 123.818 47.3352C123.986 47.5142 124.203 47.6701 124.469 47.8029C124.742 47.9357 125.049 48.054 125.391 48.158C125.733 48.2619 126.083 48.3774 126.442 48.5044C126.802 48.6257 127.152 48.77 127.494 48.9374C127.836 49.1049 128.14 49.3156 128.407 49.5697C128.679 49.8237 128.896 50.1355 129.059 50.505C129.227 50.8688 129.311 51.3134 129.311 51.8388C129.311 52.4104 129.209 52.9474 129.006 53.4497C128.809 53.9463 128.523 54.3822 128.146 54.7575C127.769 55.127 127.303 55.4186 126.747 55.6322C126.196 55.8459 125.57 55.9527 124.869 55.9527C124.469 55.9527 124.07 55.9123 123.67 55.8314C123.276 55.7506 122.893 55.638 122.523 55.4937C122.158 55.3493 121.813 55.1761 121.488 54.974C121.164 54.7719 120.88 54.5467 120.637 54.2985L121.401 53.0686C121.465 52.9763 121.549 52.9012 121.653 52.8435C121.758 52.7799 121.868 52.7482 121.984 52.7482C122.14 52.7482 122.305 52.8059 122.479 52.9214C122.653 53.0369 122.853 53.1639 123.079 53.3025C123.305 53.4411 123.566 53.5681 123.861 53.6836C124.162 53.799 124.522 53.8568 124.939 53.8568C125.547 53.8568 126.017 53.7182 126.347 53.4411C126.683 53.1639 126.851 52.7511 126.851 52.2026C126.851 51.885 126.767 51.6281 126.599 51.4317C126.437 51.2354 126.222 51.0709 125.956 50.9381C125.689 50.8053 125.385 50.6927 125.043 50.6003C124.701 50.5022 124.351 50.3953 123.991 50.2799C123.632 50.1644 123.282 50.0258 122.94 49.8641C122.598 49.7025 122.294 49.4888 122.027 49.2232C121.761 48.9576 121.543 48.6285 121.375 48.2359C121.213 47.8433 121.132 47.3554 121.132 46.7722C121.132 46.3046 121.225 45.8513 121.41 45.4125C121.595 44.9737 121.868 44.5839 122.227 44.2433C122.586 43.9026 123.027 43.6284 123.548 43.4205C124.075 43.2127 124.678 43.1087 125.356 43.1087C126.115 43.1087 126.816 43.2271 127.459 43.4638C128.108 43.6948 128.656 44.0181 129.102 44.4338L128.459 45.655Z" fill="#14A2E4"/>
</svg>
