<svg width="229" height="182" viewBox="0 0 229 182" fill="none" xmlns="http://www.w3.org/2000/svg">
<path d="M155.491 145.6L114.5 119.438L73.509 145.6L85.875 98.735L48.2045 68.25L96.867 65.2925L114.5 20.475L132.133 65.2925L180.796 68.25L143.125 98.735L155.491 145.6ZM206.1 91C206.1 78.3737 216.405 68.25 229 68.25V22.75C229 10.1237 218.695 0 206.1 0H22.9C16.8265 0 11.0018 2.39687 6.70725 6.66332C2.41267 10.9298 0 16.7163 0 22.75V68.25C12.7095 68.25 22.9 78.4875 22.9 91C22.9 97.0337 20.4873 102.82 16.1927 107.087C11.8982 111.353 6.07346 113.75 0 113.75V159.25C0 165.284 2.41267 171.07 6.70725 175.337C11.0018 179.603 16.8265 182 22.9 182H206.1C212.173 182 217.998 179.603 222.293 175.337C226.587 171.07 229 165.284 229 159.25V113.75C222.927 113.75 217.102 111.353 212.807 107.087C208.513 102.82 206.1 97.0337 206.1 91Z" fill="white"/>
</svg>
