<svg width="200" height="64" viewBox="0 0 200 64" version="1.1" xmlns="http://www.w3.org/2000/svg" xmlns:xlink="http://www.w3.org/1999/xlink">
<title>Group 3</title>
<desc>Created using Figma</desc>
<g id="Canvas" transform="translate(100 -437)">
<clipPath id="clip-0" clip-rule="evenodd">
<path d="M -100 437L 100 437L 100 501L -100 501L -100 437Z" fill="#FFFFFF"/>
</clipPath>
<g id="Group 3" clip-path="url(#clip-0)">
<g id="Exclude">
<use xlink:href="#path0_fill" transform="translate(-100 437)" fill="#FFFFFF"/>
</g>
</g>
</g>
<defs>
<path id="path0_fill" fill-rule="evenodd" d="M 32 0C 14.3269 0 0 14.3269 0 32C 0 49.6731 14.3269 64 32 64L 168 64C 185.673 64 200 49.6731 200 32C 200 14.3269 185.673 0 168 0L 32 0ZM 17.9376 39.428C 17.9376 39.5893 17.9889 39.7287 18.0916 39.846C 18.1942 39.9487 18.3262 40 18.4876 40L 30.0376 40C 30.1989 40 30.3309 39.9487 30.4336 39.846C 30.5509 39.7433 30.6096 39.6113 30.6096 39.45L 30.6096 37.25C 30.6096 37.0887 30.5509 36.9567 30.4336 36.854C 30.3309 36.7367 30.1989 36.678 30.0376 36.678L 23.1736 36.678L 30.0596 28.032C 30.2502 27.7827 30.3456 27.5333 30.3456 27.284L 30.3456 25.15C 30.3456 24.9887 30.2942 24.8567 30.1916 24.754C 30.0889 24.6513 29.9569 24.6 29.7956 24.6L 18.6856 24.6C 18.5389 24.6 18.4069 24.6513 18.2896 24.754C 18.1869 24.8567 18.1356 24.9887 18.1356 25.15L 18.1356 27.328C 18.1356 27.4747 18.1869 27.6067 18.2896 27.724C 18.4069 27.8267 18.5389 27.878 18.6856 27.878L 25.3516 27.878L 18.2676 36.502C 18.0476 36.722 17.9376 36.986 17.9376 37.294L 17.9376 39.428ZM 34.5562 38.702C 35.7295 39.714 37.3502 40.22 39.4182 40.22C 41.4568 40.22 43.0555 39.714 44.2142 38.702C 45.3875 37.69 45.9742 36.1647 45.9742 34.126L 45.9742 25.15C 45.9742 24.9887 45.9228 24.8567 45.8202 24.754C 45.7175 24.6513 45.5855 24.6 45.4242 24.6L 42.5642 24.6C 42.4175 24.6 42.2855 24.6513 42.1682 24.754C 42.0655 24.8567 42.0142 24.9887 42.0142 25.15L 42.0142 34.104C 42.0142 35.0427 41.7868 35.754 41.3322 36.238C 40.8775 36.722 40.2322 36.964 39.3962 36.964C 38.5455 36.964 37.8928 36.7293 37.4382 36.26C 36.9982 35.776 36.7782 35.0573 36.7782 34.104L 36.7782 25.15C 36.7782 24.9887 36.7195 24.8567 36.6022 24.754C 36.4995 24.6513 36.3675 24.6 36.2062 24.6L 33.3682 24.6C 33.2215 24.6 33.0895 24.6513 32.9722 24.754C 32.8695 24.8567 32.8182 24.9887 32.8182 25.15L 32.8182 34.126C 32.8182 36.1647 33.3975 37.69 34.5562 38.702ZM 37.6582 23.148C 37.6582 23.3827 37.7755 23.5 38.0102 23.5L 40.1442 23.5C 40.3348 23.5 40.4888 23.478 40.6062 23.434C 40.7235 23.3753 40.8482 23.2947 40.9802 23.192L 43.9062 20.794C 43.9795 20.7207 44.0162 20.6327 44.0162 20.53C 44.0162 20.398 43.9795 20.2953 43.9062 20.222C 43.8328 20.134 43.7302 20.09 43.5982 20.09L 40.5182 20.09C 40.3275 20.09 40.1808 20.1193 40.0782 20.178C 39.9755 20.222 39.8508 20.332 39.7042 20.508L 37.7682 22.862C 37.6948 22.9353 37.6582 23.0307 37.6582 23.148ZM 50.2776 38.702C 51.4656 39.714 53.1082 40.22 55.2056 40.22C 56.4962 40.22 57.6549 40.0073 58.6816 39.582C 59.7082 39.142 60.5149 38.526 61.1016 37.734C 61.7029 36.9273 62.0109 35.9887 62.0256 34.918C 62.0402 34.786 61.9962 34.676 61.8936 34.588C 61.8056 34.5 61.6956 34.456 61.5636 34.456L 58.5936 34.456C 58.3882 34.456 58.2342 34.5 58.1316 34.588C 58.0289 34.6613 57.9482 34.808 57.8896 35.028C 57.7136 35.7467 57.3982 36.2673 56.9436 36.59C 56.4889 36.898 55.9022 37.052 55.1836 37.052C 53.4529 37.052 52.5582 36.084 52.4996 34.148C 52.4849 33.7227 52.4776 33.0993 52.4776 32.278C 52.4776 31.4567 52.4849 30.848 52.4996 30.452C 52.5582 28.516 53.4529 27.548 55.1836 27.548C 55.9022 27.548 56.4816 27.702 56.9216 28.01C 57.3616 28.3033 57.6842 28.824 57.8896 29.572C 57.9629 29.792 58.0509 29.946 58.1536 30.034C 58.2562 30.1073 58.4029 30.144 58.5936 30.144L 61.5636 30.144C 61.6809 30.144 61.7836 30.1073 61.8716 30.034C 61.9742 29.946 62.0256 29.8433 62.0256 29.726L 62.0256 29.682C 62.0109 28.6113 61.7029 27.68 61.1016 26.888C 60.5149 26.0813 59.7082 25.4653 58.6816 25.04C 57.6549 24.6 56.4962 24.38 55.2056 24.38C 53.1522 24.38 51.5242 24.9007 50.3216 25.942C 49.1189 26.9687 48.4809 28.4353 48.4076 30.342C 48.3929 30.7527 48.3856 31.4127 48.3856 32.322C 48.3856 33.2167 48.3929 33.862 48.4076 34.258C 48.4809 36.194 49.1042 37.6753 50.2776 38.702ZM 53.7756 23.434C 53.8929 23.478 54.0249 23.5 54.1716 23.5L 56.0416 23.5C 56.1882 23.5 56.3129 23.478 56.4156 23.434C 56.5329 23.3753 56.6649 23.2727 56.8116 23.126L 59.0556 20.75C 59.1729 20.6327 59.2316 20.5153 59.2316 20.398C 59.2316 20.1927 59.1216 20.09 58.9016 20.09L 57.7796 20.09C 57.4569 20.09 57.2076 20.1413 57.0316 20.244L 55.0956 21.322L 53.1816 20.244C 52.9909 20.1413 52.7342 20.09 52.4116 20.09L 51.3116 20.09C 51.0769 20.09 50.9596 20.1927 50.9596 20.398C 50.9596 20.5153 51.0182 20.6327 51.1356 20.75L 53.4016 23.126C 53.5336 23.2727 53.6582 23.3753 53.7756 23.434ZM 62.9355 39.868C 63.0381 39.956 63.1481 40 63.2655 40L 65.9715 40C 66.3381 40 66.5801 39.846 66.6975 39.538L 67.5335 37.294L 73.4075 37.294L 74.2655 39.538C 74.3828 39.846 74.6175 40 74.9695 40L 77.6755 40C 77.8075 40 77.9175 39.956 78.0055 39.868C 78.1081 39.7653 78.1595 39.6553 78.1595 39.538L 78.1155 39.34L 72.9675 25.216C 72.9235 25.04 72.8281 24.8933 72.6815 24.776C 72.5348 24.6587 72.3441 24.6 72.1095 24.6L 68.8535 24.6C 68.6188 24.6 68.4281 24.6587 68.2815 24.776C 68.1348 24.8933 68.0395 25.04 67.9955 25.216L 62.8255 39.34C 62.8108 39.384 62.8035 39.45 62.8035 39.538C 62.8035 39.6553 62.8475 39.7653 62.9355 39.868ZM 70.4815 28.318L 72.5275 34.126L 68.4355 34.126L 70.4815 28.318ZM 81.8132 39.604C 82.8105 40.0147 84.0059 40.22 85.3992 40.22C 86.6899 40.22 87.8339 40.0293 88.8312 39.648C 89.8432 39.252 90.6279 38.6947 91.1852 37.976C 91.7572 37.2427 92.0432 36.3847 92.0432 35.402C 92.0432 34.5073 91.8525 33.7667 91.4712 33.18C 91.0899 32.5787 90.4885 32.0947 89.6672 31.728C 88.8605 31.3467 87.7752 31.0313 86.4112 30.782C 85.5752 30.606 84.9299 30.4373 84.4752 30.276C 84.0352 30.1 83.7125 29.9093 83.5072 29.704C 83.3165 29.4987 83.2212 29.242 83.2212 28.934C 83.2212 28.4793 83.3972 28.1347 83.7492 27.9C 84.1012 27.6653 84.6072 27.548 85.2672 27.548C 85.8392 27.548 86.3159 27.6653 86.6972 27.9C 87.0932 28.1347 87.3352 28.4207 87.4232 28.758C 87.5112 28.89 87.6065 28.9853 87.7092 29.044C 87.8265 29.1027 87.9732 29.132 88.1492 29.132L 91.0532 29.132C 91.1852 29.132 91.2952 29.088 91.3832 29C 91.4712 28.912 91.5152 28.802 91.5152 28.67C 91.4859 28.0247 91.2219 27.372 90.7232 26.712C 90.2392 26.0373 89.5279 25.48 88.5892 25.04C 87.6505 24.6 86.5432 24.38 85.2672 24.38C 84.0352 24.38 82.9572 24.578 82.0332 24.974C 81.1092 25.37 80.3979 25.92 79.8992 26.624C 79.4005 27.328 79.1512 28.1273 79.1512 29.022C 79.1512 30.342 79.5839 31.3613 80.4492 32.08C 81.3292 32.784 82.6492 33.3193 84.4092 33.686C 85.3625 33.8913 86.0812 34.0747 86.5652 34.236C 87.0492 34.3973 87.4012 34.5807 87.6212 34.786C 87.8559 34.9913 87.9732 35.2553 87.9732 35.578C 87.9732 36.0327 87.7532 36.392 87.3132 36.656C 86.8732 36.92 86.2352 37.052 85.3992 37.052C 84.6952 37.052 84.1305 36.9273 83.7052 36.678C 83.2799 36.4287 82.9719 36.1133 82.7812 35.732C 82.6639 35.6 82.5465 35.5047 82.4292 35.446C 82.3265 35.3727 82.1872 35.336 82.0112 35.336L 79.2392 35.336C 79.1072 35.336 78.9899 35.3873 78.8872 35.49C 78.7992 35.578 78.7552 35.6807 78.7552 35.798C 78.7845 36.59 79.0485 37.3233 79.5472 37.998C 80.0605 38.658 80.8159 39.1933 81.8132 39.604ZM 97.6367 39.846C 97.754 39.9487 97.886 40 98.0327 40L 100.937 40C 101.098 40 101.23 39.9487 101.333 39.846C 101.435 39.7287 101.487 39.5967 101.487 39.45L 101.487 28.054L 105.403 28.054C 105.564 28.054 105.696 28.0027 105.799 27.9C 105.901 27.7973 105.953 27.6653 105.953 27.504L 105.953 25.15C 105.953 24.9887 105.901 24.8567 105.799 24.754C 105.696 24.6513 105.564 24.6 105.403 24.6L 93.5667 24.6C 93.42 24.6 93.288 24.6513 93.1707 24.754C 93.068 24.8567 93.0167 24.9887 93.0167 25.15L 93.0167 27.504C 93.0167 27.6507 93.068 27.7827 93.1707 27.9C 93.288 28.0027 93.42 28.054 93.5667 28.054L 97.4827 28.054L 97.4827 39.45C 97.4827 39.5967 97.534 39.7287 97.6367 39.846ZM 108.106 39.846C 108.223 39.9487 108.355 40 108.502 40L 111.142 40C 111.303 40 111.435 39.9487 111.538 39.846C 111.641 39.7287 111.692 39.5967 111.692 39.45L 111.692 31.442L 117.06 39.582C 117.221 39.8607 117.463 40 117.786 40L 120.14 40C 120.301 40 120.433 39.9487 120.536 39.846C 120.639 39.7287 120.69 39.5893 120.69 39.428L 120.69 25.15C 120.69 24.9887 120.639 24.8567 120.536 24.754C 120.433 24.6513 120.301 24.6 120.14 24.6L 117.5 24.6C 117.353 24.6 117.221 24.6513 117.104 24.754C 117.001 24.8567 116.95 24.9887 116.95 25.15L 116.95 33.466L 111.582 25.018C 111.45 24.7393 111.201 24.6 110.834 24.6L 108.502 24.6C 108.355 24.6 108.223 24.6513 108.106 24.754C 108.003 24.8567 107.952 24.9887 107.952 25.15L 107.952 39.45C 107.952 39.5967 108.003 39.7287 108.106 39.846ZM 123.919 39.846C 124.036 39.9487 124.168 40 124.315 40L 127.263 40C 127.424 40 127.556 39.9487 127.659 39.846C 127.776 39.7433 127.835 39.6113 127.835 39.45L 127.835 25.15C 127.835 24.9887 127.776 24.8567 127.659 24.754C 127.556 24.6513 127.424 24.6 127.263 24.6L 124.315 24.6C 124.168 24.6 124.036 24.6513 123.919 24.754C 123.816 24.8567 123.765 24.9887 123.765 25.15L 123.765 39.45C 123.765 39.5967 123.816 39.7287 123.919 39.846ZM 124.051 23.148C 124.051 23.3827 124.168 23.5 124.403 23.5L 126.537 23.5C 126.727 23.5 126.881 23.478 126.999 23.434C 127.116 23.3753 127.241 23.2947 127.373 23.192L 130.299 20.794C 130.372 20.7207 130.409 20.6327 130.409 20.53C 130.409 20.398 130.372 20.2953 130.299 20.222C 130.225 20.134 130.123 20.09 129.991 20.09L 126.911 20.09C 126.72 20.09 126.573 20.1193 126.471 20.178C 126.368 20.222 126.243 20.332 126.097 20.508L 124.161 22.862C 124.087 22.9353 124.051 23.0307 124.051 23.148ZM 131.051 39.846C 131.169 39.9487 131.301 40 131.447 40L 134.087 40C 134.249 40 134.381 39.9487 134.483 39.846C 134.586 39.7287 134.637 39.5967 134.637 39.45L 134.637 31.2L 137.123 35.798C 137.211 35.9593 137.314 36.084 137.431 36.172C 137.549 36.26 137.703 36.304 137.893 36.304L 139.037 36.304C 139.36 36.304 139.617 36.1353 139.807 35.798L 142.271 31.2L 142.271 39.45C 142.271 39.6113 142.323 39.7433 142.425 39.846C 142.543 39.9487 142.682 40 142.843 40L 145.461 40C 145.623 40 145.755 39.9487 145.857 39.846C 145.975 39.7433 146.033 39.6113 146.033 39.45L 146.033 25.15C 146.033 24.9887 145.975 24.8567 145.857 24.754C 145.755 24.6513 145.623 24.6 145.461 24.6L 143.107 24.6C 142.755 24.6 142.499 24.7613 142.337 25.084L 138.465 32.014L 134.593 25.084C 134.432 24.7613 134.175 24.6 133.823 24.6L 131.447 24.6C 131.301 24.6 131.169 24.6513 131.051 24.754C 130.949 24.8567 130.897 24.9887 130.897 25.15L 130.897 39.45C 130.897 39.5967 130.949 39.7287 131.051 39.846ZM 155.956 39.604C 156.953 40.0147 158.148 40.22 159.542 40.22C 160.832 40.22 161.976 40.0293 162.974 39.648C 163.986 39.252 164.77 38.6947 165.328 37.976C 165.9 37.2427 166.186 36.3847 166.186 35.402C 166.186 34.5073 165.995 33.7667 165.614 33.18C 165.232 32.5787 164.631 32.0947 163.81 31.728C 163.003 31.3467 161.918 31.0313 160.554 30.782C 159.718 30.606 159.072 30.4373 158.618 30.276C 158.178 30.1 157.855 29.9093 157.65 29.704C 157.459 29.4987 157.364 29.242 157.364 28.934C 157.364 28.4793 157.54 28.1347 157.892 27.9C 158.244 27.6653 158.75 27.548 159.41 27.548C 159.982 27.548 160.458 27.6653 160.84 27.9C 161.236 28.1347 161.478 28.4207 161.566 28.758C 161.654 28.89 161.749 28.9853 161.852 29.044C 161.969 29.1027 162.116 29.132 162.292 29.132L 165.196 29.132C 165.328 29.132 165.438 29.088 165.526 29C 165.614 28.912 165.658 28.802 165.658 28.67C 165.628 28.0247 165.364 27.372 164.866 26.712C 164.382 26.0373 163.67 25.48 162.732 25.04C 161.793 24.6 160.686 24.38 159.41 24.38C 158.178 24.38 157.1 24.578 156.176 24.974C 155.252 25.37 154.54 25.92 154.042 26.624C 153.543 27.328 153.294 28.1273 153.294 29.022C 153.294 30.342 153.726 31.3613 154.592 32.08C 155.472 32.784 156.792 33.3193 158.552 33.686C 159.505 33.8913 160.224 34.0747 160.708 34.236C 161.192 34.3973 161.544 34.5807 161.764 34.786C 161.998 34.9913 162.116 35.2553 162.116 35.578C 162.116 36.0327 161.896 36.392 161.456 36.656C 161.016 36.92 160.378 37.052 159.542 37.052C 158.838 37.052 158.273 36.9273 157.848 36.678C 157.422 36.4287 157.114 36.1133 156.924 35.732C 156.806 35.6 156.689 35.5047 156.572 35.446C 156.469 35.3727 156.33 35.336 156.154 35.336L 153.382 35.336C 153.25 35.336 153.132 35.3873 153.03 35.49C 152.942 35.578 152.898 35.6807 152.898 35.798C 152.927 36.59 153.191 37.3233 153.69 37.998C 154.203 38.658 154.958 39.1933 155.956 39.604ZM 168.542 39.846C 168.659 39.9487 168.791 40 168.938 40L 179.388 40C 179.549 40 179.681 39.9487 179.784 39.846C 179.886 39.7287 179.938 39.5967 179.938 39.45L 179.938 37.382C 179.938 37.2207 179.886 37.0887 179.784 36.986C 179.681 36.8833 179.549 36.832 179.388 36.832L 172.194 36.832L 172.194 33.774L 178.728 33.774C 178.889 33.774 179.021 33.7227 179.124 33.62C 179.226 33.5027 179.278 33.3707 179.278 33.224L 179.278 31.31C 179.278 31.1487 179.226 31.0167 179.124 30.914C 179.021 30.7967 178.889 30.738 178.728 30.738L 172.194 30.738L 172.194 27.768L 179.212 27.768C 179.373 27.768 179.505 27.7167 179.608 27.614C 179.71 27.4967 179.762 27.3647 179.762 27.218L 179.762 25.15C 179.762 24.9887 179.71 24.8567 179.608 24.754C 179.505 24.6513 179.373 24.6 179.212 24.6L 168.938 24.6C 168.791 24.6 168.659 24.6513 168.542 24.754C 168.439 24.8567 168.388 24.9887 168.388 25.15L 168.388 39.45C 168.388 39.5967 168.439 39.7287 168.542 39.846Z"/>
</defs>
</svg>
