<svg width="382" height="364" viewBox="0 0 382 364" version="1.1" xmlns="http://www.w3.org/2000/svg" xmlns:xlink="http://www.w3.org/1999/xlink">
<title>logo</title>
<desc>Created using Figma</desc>
<g id="Canvas" transform="translate(657 1982)">
<g id="logo">
<g id="Vector">
<use xlink:href="#path0_stroke" transform="translate(-398.196 -1882.08)" fill="#FFFFFF"/>
</g>
<g id="Vector">
<use xlink:href="#path1_stroke" transform="translate(-383.922 -1803.57)" fill="#FFFFFF"/>
</g>
<g id="Vector">
<use xlink:href="#path2_fill" transform="translate(-333.961 -1903.49)" fill="#FFFFFF"/>
<use xlink:href="#path3_stroke" transform="translate(-333.961 -1903.49)" fill="#FFFFFF"/>
</g>
<g id="Vector">
<use xlink:href="#path4_stroke" transform="translate(-398.196 -1767.88)" fill="#FFFFFF"/>
</g>
<g id="Vector">
<use xlink:href="#path2_fill" transform="translate(-333.961 -1746.47)" fill="#FFFFFF"/>
<use xlink:href="#path3_stroke" transform="translate(-333.961 -1746.47)" fill="#FFFFFF"/>
</g>
<g id="Vector">
<use xlink:href="#path2_fill" transform="translate(-326.824 -1824.98)" fill="#FFFFFF"/>
<use xlink:href="#path3_stroke" transform="translate(-326.824 -1824.98)" fill="#FFFFFF"/>
</g>
<g id="Vector">
<use xlink:href="#path5_stroke" transform="translate(-426.745 -1732.2)" fill="#FFFFFF"/>
</g>
<g id="Vector">
<use xlink:href="#path2_fill" transform="translate(-391.059 -1682.24)" fill="#FFFFFF"/>
<use xlink:href="#path3_stroke" transform="translate(-391.059 -1682.24)" fill="#FFFFFF"/>
</g>
<g id="Vector">
<use xlink:href="#path6_stroke" transform="translate(-462.431 -1932.04)" fill="#FFFFFF"/>
</g>
<g id="Vector">
<use xlink:href="#path2_fill" transform="translate(-391.059 -1953.45)" fill="#FFFFFF"/>
<use xlink:href="#path3_stroke" transform="translate(-391.059 -1953.45)" fill="#FFFFFF"/>
</g>
<g id="Vector">
<use xlink:href="#path7_stroke" transform="translate(-648 -1967.73)" fill="#FFFFFF"/>
</g>
<g id="Vector">
<use xlink:href="#path8_stroke" transform="translate(-562.353 -1932.04)" fill="#FFFFFF"/>
</g>
<g id="Vector">
<use xlink:href="#path9_stroke" transform="translate(-576.627 -1831.81)" fill="#FFFFFF"/>
</g>
<g id="Vector">
<use xlink:href="#path10_stroke" transform="translate(-512.392 -1924.9)" fill="#FFFFFF"/>
</g>
<g id="Vector">
<use xlink:href="#path11_stroke" transform="translate(-512.392 -1718.29)" fill="#FFFFFF"/>
</g>
<g id="Vector">
<use xlink:href="#path12_stroke" transform="translate(-576.627 -1882.08)" fill="#FFFFFF"/>
</g>
<g id="Vector">
<use xlink:href="#path13_stroke" transform="translate(-598.039 -1746.47)" fill="#FFFFFF"/>
</g>
<g id="Vector">
<use xlink:href="#path14_stroke" transform="translate(-576.627 -1775.02)" fill="#FFFFFF"/>
</g>
<g id="Vector">
<use xlink:href="#path15_stroke" transform="translate(-605.176 -1824.98)" fill="#FFFFFF"/>
</g>
<g id="Vector">
<use xlink:href="#path16_stroke" transform="translate(-462.431 -1839.25)" fill="#FFFFFF"/>
</g>
<g id="Vector">
<use xlink:href="#path17_stroke" transform="translate(-426.745 -1839.25)" fill="#FFFFFF"/>
</g>
<g id="Vector">
<use xlink:href="#path18_stroke" transform="translate(-426.745 -1767.88)" fill="#FFFFFF"/>
</g>
<g id="Vector">
<use xlink:href="#path19_stroke" transform="translate(-462.431 -1767.88)" fill="#FFFFFF"/>
</g>
<g id="Vector">
<use xlink:href="#path16_stroke" transform="translate(-462.431 -1732.2)" fill="#FFFFFF"/>
</g>
<g id="Vector">
<use xlink:href="#path20_stroke" transform="translate(-462.431 -1803.57)" fill="#FFFFFF"/>
</g>
<g id="Vector">
<use xlink:href="#path17_stroke" transform="translate(-412.471 -1803.57)" fill="#FFFFFF"/>
</g>
<g id="Vector">
<use xlink:href="#path21_stroke" transform="translate(-462.431 -1982)" fill="#FFFFFF"/>
</g>
</g>
</g>
<defs>
<path id="path0_stroke" d="M 43.5372 0L 43.5372 -9L 38.7867 -9L 36.1064 -5.07771L 43.5372 0ZM 14.2745 42.8235L 14.2745 51.8235L 19.0251 51.8235L 21.7053 47.9012L 14.2745 42.8235ZM 85.6471 -9L 43.5372 -9L 43.5372 9L 85.6471 9L 85.6471 -9ZM 36.1064 -5.07771L 6.84371 37.7458L 21.7053 47.9012L 50.968 5.07771L 36.1064 -5.07771ZM 14.2745 33.8235L 0 33.8235L 0 51.8235L 14.2745 51.8235L 14.2745 33.8235Z"/>
<path id="path1_stroke" d="M 78.5098 -9L 0 -9L 0 9L 78.5098 9L 78.5098 -9Z"/>
<path id="path2_fill" d="M 21.4118 42.8235C 33.2372 42.8235 42.8235 33.2372 42.8235 21.4118C 42.8235 9.58637 33.2372 0 21.4118 0C 9.58637 0 0 9.58637 0 21.4118C 0 33.2372 9.58637 42.8235 21.4118 42.8235Z"/>
<path id="path3_stroke" d="M 33.8235 21.4118C 33.8235 28.2666 28.2666 33.8235 21.4118 33.8235L 21.4118 51.8235C 38.2077 51.8235 51.8235 38.2077 51.8235 21.4118L 33.8235 21.4118ZM 21.4118 33.8235C 14.5569 33.8235 9 28.2666 9 21.4118L -9 21.4118C -9 38.2077 4.61581 51.8235 21.4118 51.8235L 21.4118 33.8235ZM 9 21.4118C 9 14.5569 14.5569 9 21.4118 9L 21.4118 -9C 4.61581 -9 -9 4.61581 -9 21.4118L 9 21.4118ZM 21.4118 9C 28.2666 9 33.8235 14.5569 33.8235 21.4118L 51.8235 21.4118C 51.8235 4.61581 38.2077 -9 21.4118 -9L 21.4118 9Z"/>
<path id="path4_stroke" d="M 43.5372 42.8235L 36.0488 47.8158L 38.7206 51.8235L 43.5372 51.8235L 43.5372 42.8235ZM 14.9882 0L 22.4767 -4.9923L 19.8049 -9L 14.9882 -9L 14.9882 0ZM 85.6471 33.8235L 43.5372 33.8235L 43.5372 51.8235L 85.6471 51.8235L 85.6471 33.8235ZM 51.0257 37.8312L 22.4767 -4.9923L 7.49977 4.9923L 36.0488 47.8158L 51.0257 37.8312ZM 14.9882 -9L 0 -9L 0 9L 14.9882 9L 14.9882 -9Z"/>
<path id="path5_stroke" d="M 7.85097 0L 15.3279 -5.00954L 12.6543 -9L 7.85097 -9L 7.85097 0ZM 63.1475 66.363L 15.3279 -5.00954L 0.374039 5.00954L 48.1936 76.3821L 63.1475 66.363ZM 7.85097 -9L 0 -9L 0 9L 7.85097 9L 7.85097 -9Z"/>
<path id="path6_stroke" d="M 43.5372 57.098L 43.5372 66.098L 47.7392 66.098L 50.4371 62.8767L 43.5372 57.098ZM 84.457 -5.77861L 36.6374 51.3194L 50.4371 62.8767L 98.2567 5.77861L 84.457 -5.77861ZM 43.5372 48.098L 0 48.098L 0 66.098L 43.5372 66.098L 43.5372 48.098Z"/>
<path id="path7_stroke" d="M 87.7882 35.6863L 88.0132 44.6835L 94.6885 44.5166L 96.4642 38.0796L 87.7882 35.6863ZM 36.4 104.204L 39.9785 112.462L 46.9827 109.427L 45.1313 102.021L 36.4 104.204ZM 15.702 221.969L 24.5272 223.734L 25.2974 219.883L 22.9981 216.699L 15.702 221.969ZM 14.2745 244.808L 5.31147 245.623L 5.31771 245.691L 5.32501 245.76L 14.2745 244.808ZM 74.2274 299.051L 82.6424 295.859L 80.202 289.425L 73.3535 290.094L 74.2274 299.051ZM 135.608 -9C 108.779 -9 85.9145 8.63503 79.1123 33.2929L 96.4642 38.0796C 101.082 21.3414 116.758 9 135.608 9L 135.608 -9ZM 87.5633 26.6891C 53.1338 27.5498 26.6863 59.7032 26.6863 96.3529L 44.6863 96.3529C 44.6863 67.34 65.3446 45.2502 88.0132 44.6835L 87.5633 26.6891ZM 26.6863 96.3529C 26.6863 99.1966 26.6577 102.343 27.6687 106.387L 45.1313 102.021C 44.7149 100.355 44.6863 99.2191 44.6863 96.3529L 26.6863 96.3529ZM 32.8215 95.9459C 7.14849 107.071 -9 137.494 -9 171.294L 9 171.294C 9 142.286 22.828 119.894 39.9785 112.462L 32.8215 95.9459ZM -9 171.294C -9 193.165 -1.9832 212.853 8.40585 227.238L 22.9981 216.699C 14.8303 205.39 9 189.392 9 171.294L -9 171.294ZM 6.87673 220.204C 5.32041 227.985 4.5025 236.724 5.31147 245.623L 23.2375 243.993C 22.6191 237.19 23.2286 230.227 24.5272 223.734L 6.87673 220.204ZM 5.32501 245.76C 9.33323 283.437 40.1763 311.416 75.1013 308.008L 73.3535 290.094C 49.7531 292.396 26.353 273.269 23.224 243.856L 5.32501 245.76ZM 65.8125 302.243C 74.9949 326.451 99.7662 344.451 128.471 344.451L 128.471 326.451C 107.214 326.451 89.1619 313.047 82.6424 295.859L 65.8125 302.243ZM 128.471 344.451C 164.309 344.451 194.569 316.674 194.569 281.922L 176.569 281.922C 176.569 305.694 155.44 326.451 128.471 326.451L 128.471 344.451ZM 194.569 281.922L 194.569 49.9608L 176.569 49.9608L 176.569 281.922L 194.569 281.922ZM 194.569 49.9608C 194.569 17.1549 168.414 -9 135.608 -9L 135.608 9C 158.473 9 176.569 27.0961 176.569 49.9608L 194.569 49.9608Z"/>
<path id="path8_stroke" d="M 49.9608 55.2353C 27.0961 55.2353 9 37.1392 9 14.2745L -9 14.2745C -9 47.0804 17.1549 73.2353 49.9608 73.2353L 49.9608 55.2353ZM 9 14.2745C 9 10.0709 9.60855 6.05835 10.6793 2.84605L -6.39698 -2.84605C -8.18112 2.50636 -9 8.48595 -9 14.2745L 9 14.2745Z"/>
<path id="path9_stroke" d="M 47.1059 18.9625L 53.9173 24.8451L 53.9373 24.822L 53.9571 24.7987L 47.1059 18.9625ZM 107.059 11.1115L 114.087 5.48929L 114 5.38096L 113.91 5.27535L 107.059 11.1115ZM -4.57856 40.9854C 16.8743 53.6621 39.3675 41.6922 53.9173 24.8451L 40.2945 13.0799C 27.7227 27.6368 14.5296 31.3688 4.57856 25.4887L -4.57856 40.9854ZM 53.9571 24.7987C 61.0745 16.4435 70.2045 10.9695 78.6796 9.44124C 86.7859 7.97945 94.3133 10.0283 100.208 16.9477L 113.91 5.27535C 103.389 -7.0758 89.1475 -10.7367 75.4852 -8.27305C 62.1916 -5.87585 49.553 2.21097 40.2547 13.1263L 53.9571 24.7987ZM 100.031 16.7338C 103.077 20.5414 104.825 22.8776 105.658 25.3772L 122.734 19.6851C 120.713 13.62 116.75 8.81897 114.087 5.48929L 100.031 16.7338Z"/>
<path id="path10_stroke" d="M 47.2647 19.7701C 30.087 23.6489 14.3132 13.9 8.50836 -2.93392L -8.50836 2.93392C -0.038646 27.4961 24.1561 43.4413 51.2294 37.328L 47.2647 19.7701Z"/>
<path id="path11_stroke" d="M 51.2294 -7.70063C 24.1561 -13.814 -0.038646 2.13127 -8.50836 26.6934L 8.50836 32.5613C 14.3132 15.7274 30.087 5.97846 47.2647 9.8573L 51.2294 -7.70063Z"/>
<path id="path12_stroke" d="M 26.3662 -8.73128C 17.9806 -6.63488 9.44399 -2.4282 2.84005 3.62542C -3.79211 9.7049 -9 18.1966 -9 28.549L 9 28.549C 9 24.6269 10.9294 20.6284 15.0031 16.8942C 19.105 13.1341 24.8429 10.2035 30.7318 8.73128L 26.3662 -8.73128Z"/>
<path id="path13_stroke" d="M 30.7318 19.8177C 24.8429 18.3455 19.105 15.4149 15.0031 11.6548C 10.9294 7.92058 9 3.92209 9 0L -9 0C -9 10.3524 -3.79211 18.8441 2.84005 24.9236C 9.44399 30.9772 17.9806 35.1839 26.3662 37.2803L 30.7318 19.8177Z"/>
<path id="path14_stroke" d="M 57.098 35.6863L 57.098 44.6863L 66.098 44.6863L 66.098 35.6863L 57.098 35.6863ZM 15.0383 110.6C 11.2612 103.675 9 96.594 9 89.2157L -9 89.2157C -9 100.394 -5.55141 110.442 -0.763805 119.219L 15.0383 110.6ZM 9 89.2157C 9 65.443 30.1288 44.6863 57.098 44.6863L 57.098 26.6863C 21.2595 26.6863 -9 54.4629 -9 89.2157L 9 89.2157ZM 66.098 35.6863L 66.098 28.549L 48.098 28.549L 48.098 35.6863L 66.098 35.6863ZM 66.098 28.549C 66.098 25.687 68.3735 20.7443 73.3523 15.921C 78.3736 11.0567 83.3627 9 85.6471 9L 85.6471 -9C 76.5118 -9 67.2264 -3.20573 60.828 2.9927C 54.3873 9.23213 48.098 18.564 48.098 28.549L 66.098 28.549Z"/>
<path id="path15_stroke" d="M 0 9C 8.59022 9 15.9804 16.3902 15.9804 24.9804L 33.9804 24.9804C 33.9804 6.44905 18.5313 -9 0 -9L 0 9ZM 15.9804 24.9804C 15.9804 33.5706 8.59022 40.9608 0 40.9608L 0 58.9608C 18.5313 58.9608 33.9804 43.5117 33.9804 24.9804L 15.9804 24.9804Z"/>
<path id="path16_stroke" d="M 0 9L 21.4118 9L 21.4118 -9L 0 -9L 0 9Z"/>
<path id="path17_stroke" d="M 0 9L 14.2745 9L 14.2745 -9L 0 -9L 0 9Z"/>
<path id="path18_stroke" d="M 14.2745 -9L 0 -9L 0 9L 14.2745 9L 14.2745 -9Z"/>
<path id="path19_stroke" d="M 21.4118 -9L 0 -9L 0 9L 21.4118 9L 21.4118 -9Z"/>
<path id="path20_stroke" d="M 0 9L 35.6863 9L 35.6863 -9L 0 -9L 0 9Z"/>
<path id="path21_stroke" d="M -9 0L -9 364L 9 364L 9 0L -9 0Z"/>
</defs>
</svg>
