<svg width="95" height="135" viewBox="0 0 95 135" version="1.1" xmlns="http://www.w3.org/2000/svg" xmlns:xlink="http://www.w3.org/1999/xlink">
<title>map-pointer</title>
<desc>Created using Figma</desc>
<g id="Canvas" transform="translate(132 710)">
<g id="map-pointer">
<use xlink:href="#path0_fill" transform="translate(-132 -710)" fill="#14A2E4"/>
<mask id="mask0_outline_ins">
<use xlink:href="#path0_fill" fill="white" transform="translate(-132 -710)"/>
</mask>
<g mask="url(#mask0_outline_ins)">
<use xlink:href="#path1_stroke_2x" transform="translate(-132 -710)" fill="#333333"/>
</g>
</g>
</g>
<defs>
<path id="path0_fill" d="M 47.5 64.125C 43.0008 64.125 38.6859 62.3471 35.5044 59.1824C 32.323 56.0177 30.5357 51.7255 30.5357 47.25C 30.5357 42.7745 32.323 38.4823 35.5044 35.3176C 38.6859 32.1529 43.0008 30.375 47.5 30.375C 51.9992 30.375 56.3141 32.1529 59.4956 35.3176C 62.677 38.4823 64.4643 42.7745 64.4643 47.25C 64.4643 49.4661 64.0255 51.6604 63.173 53.7078C 62.3204 55.7552 61.0708 57.6154 59.4956 59.1824C 57.9203 60.7494 56.0502 61.9924 53.992 62.8405C 51.9338 63.6885 49.7278 64.125 47.5 64.125ZM 47.5 5.9952e-15C 34.9022 5.9952e-15 22.8204 4.97811 13.9124 13.8392C 5.00445 22.7003 1.80808e-14 34.7185 1.20538e-14 47.25C 2.41077e-14 82.6875 47.5 135 47.5 135C 47.5 135 95 82.6875 95 47.25C 95 34.7185 89.9955 22.7003 81.0876 13.8392C 72.1796 4.97811 60.0978 1.4988e-14 47.5 5.9952e-15Z"/>
<path id="path1_stroke_2x" d="M 47.5 30.375L 47.5 25.375L 47.5 30.375ZM 1.20538e-14 47.25L -5 47.25L 1.20538e-14 47.25ZM 47.5 135L 43.7983 138.361L 47.5 142.438L 51.2017 138.361L 47.5 135ZM 47.5 59.125C 44.3184 59.125 41.2724 57.8675 39.0306 55.6376L 31.9782 62.7273C 36.0994 66.8267 41.6832 69.125 47.5 69.125L 47.5 59.125ZM 39.0306 55.6376C 36.7898 53.4085 35.5357 50.3909 35.5357 47.25L 25.5357 47.25C 25.5357 53.0602 27.8562 58.627 31.9782 62.7273L 39.0306 55.6376ZM 35.5357 47.25C 35.5357 44.1091 36.7898 41.0915 39.0306 38.8624L 31.9782 31.7727C 27.8562 35.873 25.5357 41.4398 25.5357 47.25L 35.5357 47.25ZM 39.0306 38.8624C 41.2724 36.6325 44.3184 35.375 47.5 35.375L 47.5 25.375C 41.6832 25.375 36.0994 27.6733 31.9782 31.7727L 39.0306 38.8624ZM 47.5 35.375C 50.6816 35.375 53.7276 36.6325 55.9694 38.8624L 63.0218 31.7727C 58.9006 27.6733 53.3168 25.375 47.5 25.375L 47.5 35.375ZM 55.9694 38.8624C 58.2102 41.0915 59.4643 44.1091 59.4643 47.25L 69.4643 47.25C 69.4643 41.4398 67.1438 35.873 63.0218 31.7727L 55.9694 38.8624ZM 59.4643 47.25C 59.4643 48.8058 59.1563 50.3469 58.5571 51.7857L 67.7888 55.6298C 68.8947 52.9739 69.4643 50.1263 69.4643 47.25L 59.4643 47.25ZM 58.5571 51.7857C 57.958 53.2246 57.0791 54.5337 55.9694 55.6376L 63.0218 62.7273C 65.0626 60.6972 66.6828 58.2857 67.7888 55.6298L 58.5571 51.7857ZM 55.9694 55.6376C 54.8596 56.7415 53.5406 57.6186 52.0871 58.2175L 55.8968 67.4634C 58.5597 66.3662 60.981 64.7573 63.0218 62.7273L 55.9694 55.6376ZM 52.0871 58.2175C 50.6336 58.8164 49.0748 59.125 47.5 59.125L 47.5 69.125C 50.3807 69.125 53.2339 68.5606 55.8968 67.4634L 52.0871 58.2175ZM 47.5 -5C 33.5846 -5 20.2339 0.498519 10.3862 10.2944L 17.4386 17.3841C 25.4069 9.4577 36.2198 5 47.5 5L 47.5 -5ZM 10.3862 10.2944C 0.537679 20.0911 -5 33.3839 -5 47.25L 5 47.25C 5 36.0531 9.47122 25.3095 17.4386 17.3841L 10.3862 10.2944ZM -5 47.25C -5 57.1264 -1.71938 67.7899 2.8629 77.9644C 7.47493 88.2049 13.5797 98.3269 19.612 107.221C 25.6541 116.129 31.6862 123.896 36.204 129.433C 38.4651 132.205 40.3525 134.424 41.6795 135.956C 42.3431 136.723 42.867 137.317 43.2278 137.724C 43.4082 137.927 43.5479 138.083 43.6439 138.19C 43.6919 138.243 43.7291 138.285 43.7549 138.313C 43.7678 138.328 43.778 138.339 43.7852 138.347C 43.7888 138.351 43.7917 138.354 43.7939 138.356C 43.795 138.358 43.7961 138.359 43.7966 138.359C 43.7976 138.36 43.7983 138.361 47.5 135C 51.2017 131.639 51.2021 131.639 51.2023 131.639C 51.2021 131.639 51.2021 131.639 51.2018 131.639C 51.201 131.638 51.1996 131.637 51.1975 131.634C 51.1932 131.63 51.1861 131.622 51.1762 131.611C 51.1564 131.589 51.1254 131.554 51.0836 131.508C 50.9999 131.415 50.8728 131.273 50.7053 131.084C 50.3703 130.707 49.8737 130.143 49.2385 129.41C 47.9678 127.942 46.1443 125.798 43.9523 123.112C 39.5638 117.733 33.7209 110.207 27.888 101.607C 22.0453 92.9934 16.2751 83.3928 11.9809 73.8579C 7.65688 64.257 5 55.0924 5 47.25L -5 47.25ZM 47.5 135C 51.2017 138.361 51.2024 138.36 51.2034 138.359C 51.2039 138.359 51.205 138.358 51.2061 138.356C 51.2083 138.354 51.2112 138.351 51.2148 138.347C 51.222 138.339 51.2322 138.328 51.2451 138.313C 51.2709 138.285 51.308 138.243 51.3561 138.19C 51.4521 138.083 51.5918 137.927 51.7722 137.724C 52.133 137.317 52.6569 136.723 53.3205 135.956C 54.6475 134.424 56.5349 132.205 58.796 129.433C 63.3138 123.896 69.3459 116.129 75.388 107.221C 81.4203 98.3269 87.5251 88.2049 92.1371 77.9644C 96.7194 67.7899 100 57.1264 100 47.25L 90 47.25C 90 55.0924 87.3431 64.257 83.0191 73.8579C 78.7249 83.3928 72.9547 92.9934 67.112 101.607C 61.2791 110.207 55.4362 117.733 51.0477 123.112C 48.8557 125.798 47.0322 127.942 45.7615 129.41C 45.1263 130.143 44.6297 130.707 44.2947 131.084C 44.1272 131.273 44.0001 131.415 43.9164 131.508C 43.8746 131.554 43.8436 131.589 43.8238 131.611C 43.8139 131.622 43.8068 131.63 43.8025 131.634C 43.8004 131.637 43.799 131.638 43.7982 131.639C 43.7979 131.639 43.7979 131.639 43.7977 131.639C 43.7979 131.639 43.7983 131.639 47.5 135ZM 100 47.25C 100 33.3839 94.4623 20.0911 84.6138 10.2944L 77.5614 17.3841C 85.5288 25.3095 90 36.0531 90 47.25L 100 47.25ZM 84.6138 10.2944C 74.7661 0.498519 61.4154 -5 47.5 -5L 47.5 5C 58.7802 5 69.5931 9.4577 77.5614 17.3841L 84.6138 10.2944Z"/>
</defs>
</svg>
