<svg width="18" height="20" viewBox="0 0 18 20" version="1.1" xmlns="http://www.w3.org/2000/svg" xmlns:xlink="http://www.w3.org/1999/xlink">
<title>Vector</title>
<desc>Created using Figma</desc>
<g id="Canvas" transform="translate(461 -35)">
<g id="Vector">
<use xlink:href="#path0_fill" transform="translate(-461 35)" fill="#FFFFFF"/>
</g>
</g>
<defs>
<path id="path0_fill" d="M 16 18L 2 18L 2 7L 16 7L 16 18ZM 13 0L 13 2L 5 2L 5 0L 3 0L 3 2L 2 2C 0.89 2 0 2.89 0 4L 0 18C 4.44089e-16 18.5304 0.210714 19.0391 0.585786 19.4142C 0.960859 19.7893 1.46957 20 2 20L 16 20C 16.5304 20 17.0391 19.7893 17.4142 19.4142C 17.7893 19.0391 18 18.5304 18 18L 18 4C 18 2.89 17.1 2 16 2L 15 2L 15 0L 13 0ZM 14 11L 9 11L 9 16L 14 16L 14 11Z"/>
</defs>
</svg>
