<svg xmlns="http://www.w3.org/2000/svg" xmlns:xlink="http://www.w3.org/1999/xlink" version="1.1" width="90" height="90" style="enable-background:new 0 0 90 90;" xml:space="preserve"><rect id="backgroundrect" width="100%" height="100%" x="0" y="0" fill="none" stroke="none"/>
















<g class="currentLayer" style=""><title>Layer 1</title><g id="svg_1" class="selected" fill="#ffffff" fill-opacity="1">
	<path id="Facebook__x28_alt_x29_" d="M90,15.001C90,7.119,82.884,0,75,0H15C7.116,0,0,7.119,0,15.001v59.998   C0,82.881,7.116,90,15.001,90H45V56H34V41h11v-5.844C45,25.077,52.568,16,61.875,16H74v15H61.875C60.548,31,59,32.611,59,35.024V41   h15v15H59v34h16c7.884,0,15-7.119,15-15.001V15.001z" fill="#ffffff" fill-opacity="1"/>
</g><g id="svg_2">
</g><g id="svg_3">
</g><g id="svg_4">
</g><g id="svg_5">
</g><g id="svg_6">
</g><g id="svg_7">
</g><g id="svg_8">
</g><g id="svg_9">
</g><g id="svg_10">
</g><g id="svg_11">
</g><g id="svg_12">
</g><g id="svg_13">
</g><g id="svg_14">
</g><g id="svg_15">
</g><g id="svg_16">
</g></g></svg>