<svg width="51" height="72" viewBox="0 0 51 72" version="1.1" xmlns="http://www.w3.org/2000/svg" xmlns:xlink="http://www.w3.org/1999/xlink">
<title>Vector</title>
<desc>Created using Figma</desc>
<g id="Canvas" transform="translate(-1994 -715)">
<g id="Vector">
<use xlink:href="#path0_fill" transform="translate(1994 715)" fill="#222222"/>
</g>
</g>
<defs>
<path id="path0_fill" d="M 25.2 34.2C 22.8131 34.2 20.5239 33.2518 18.836 31.564C 17.1482 29.8761 16.2 27.5869 16.2 25.2C 16.2 22.8131 17.1482 20.5239 18.836 18.836C 20.5239 17.1482 22.8131 16.2 25.2 16.2C 27.587 16.2 29.8761 17.1482 31.564 18.836C 33.2518 20.5239 34.2 22.8131 34.2 25.2C 34.2 26.3819 33.9672 27.5522 33.5149 28.6442C 33.0626 29.7361 32.3997 30.7282 31.564 31.564C 30.7282 32.3997 29.7361 33.0626 28.6442 33.5149C 27.5522 33.9672 26.3819 34.2 25.2 34.2ZM 25.2 3.19744e-15C 18.5165 3.19744e-15 12.1068 2.65499 7.38091 7.38091C 2.65499 12.1068 9.59233e-15 18.5165 6.39488e-15 25.2C 1.27898e-14 44.1 25.2 72 25.2 72C 25.2 72 50.4 44.1 50.4 25.2C 50.4 18.5165 47.745 12.1068 43.0191 7.38091C 38.2932 2.65499 31.8835 7.99361e-15 25.2 3.19744e-15Z"/>
</defs>
</svg>
