<svg width="20" height="20" viewBox="0 0 20 20" version="1.1" xmlns="http://www.w3.org/2000/svg" xmlns:xlink="http://www.w3.org/1999/xlink">
<title>Vector</title>
<desc>Created using Figma</desc>
<g id="Canvas" transform="translate(99 -624)">
<g id="Vector">
<use xlink:href="#path0_fill" transform="translate(-99 624)" fill="#FFFFFF"/>
</g>
</g>
<defs>
<path id="path0_fill" d="M 9 7L 11 7L 11 5L 9 5L 9 7ZM 10 18C 5.59 18 2 14.41 2 10C 2 5.59 5.59 2 10 2C 14.41 2 18 5.59 18 10C 18 14.41 14.41 18 10 18ZM 10 8.88178e-16C 8.68678 2.22045e-16 7.38642 0.258658 6.17317 0.761205C 4.95991 1.26375 3.85752 2.00035 2.92893 2.92893C 1.05357 4.8043 3.9968e-15 7.34784 2.22045e-15 10C 4.44089e-15 12.6522 1.05357 15.1957 2.92893 17.0711C 3.85752 17.9997 4.95991 18.7362 6.17317 19.2388C 7.38642 19.7413 8.68678 20 10 20C 12.6522 20 15.1957 18.9464 17.0711 17.0711C 18.9464 15.1957 20 12.6522 20 10C 20 8.68678 19.7413 7.38642 19.2388 6.17317C 18.7362 4.95991 17.9997 3.85752 17.0711 2.92893C 16.1425 2.00035 15.0401 1.26375 13.8268 0.761205C 12.6136 0.258658 11.3132 2.22045e-15 10 8.88178e-16ZM 9 15L 11 15L 11 9L 9 9L 9 15Z"/>
</defs>
</svg>
