<svg width="18" height="19" viewBox="0 0 18 19" version="1.1" xmlns="http://www.w3.org/2000/svg" xmlns:xlink="http://www.w3.org/1999/xlink">
<title>Vector</title>
<desc>Created using Figma</desc>
<g id="Canvas" transform="translate(290 -35)">
<g id="Vector">
<use xlink:href="#path0_fill" transform="translate(-290 35)" fill="#FFFFFF"/>
</g>
</g>
<defs>
<path id="path0_fill" d="M 2 2C 1.46957 2 0.960859 2.21071 0.585786 2.58579C 0.210714 2.96086 8.88178e-16 3.46957 4.44089e-16 4L 4.44089e-16 14.29L 8.18 6.11C 8.06 5.59 8 5.07 8 4.53C 8 3.62 8.2 2.76 8.59 2L 2 2ZM 15 19C 15.5304 19 16.0391 18.7893 16.4142 18.4142C 16.7893 18.0391 17 17.5304 17 17L 17 9.86C 16.24 11 15.31 12.21 14.29 13.5L 13.5 14.5L 12.72 13.5C 11.39 11.85 10.22 10.32 9.39 8.91C 9.05 8.33 8.76 7.76 8.53 7.18L 4.46 11.25L 12.21 19L 15 19ZM 4.44089e-16 17C 8.88178e-16 17.5304 0.210714 18.0391 0.585786 18.4142C 0.960859 18.7893 1.46957 19 2 19L 10.79 19L 3.75 11.96L 4.44089e-16 15.71L 4.44089e-16 17ZM 13.5 13C 16.11 9.63 18 7.1 18 4.57C 18 2.05 16 0 13.5 0C 11 0 9 2.05 9 4.57C 9 7.1 10.87 9.63 13.5 13ZM 15.5 4.5C 15.5 5.03043 15.2893 5.53914 14.9142 5.91421C 14.5391 6.28929 14.0304 6.5 13.5 6.5C 12.9696 6.5 12.4609 6.28929 12.0858 5.91421C 11.7107 5.53914 11.5 5.03043 11.5 4.5C 11.5 3.96957 11.7107 3.46086 12.0858 3.08579C 12.4609 2.71071 12.9696 2.5 13.5 2.5C 14.0304 2.5 14.5391 2.71071 14.9142 3.08579C 15.2893 3.46086 15.5 3.96957 15.5 4.5Z"/>
</defs>
</svg>
