<svg width="63" height="72" viewBox="0 0 63 72" version="1.1" xmlns="http://www.w3.org/2000/svg" xmlns:xlink="http://www.w3.org/1999/xlink">
<title>Vector</title>
<desc>Created using Figma</desc>
<g id="Canvas" transform="translate(-1689 -714)">
<g id="Vector">
<use xlink:href="#path0_fill" transform="translate(1689 714)" fill="#222222"/>
</g>
</g>
<defs>
<path id="path0_fill" d="M 60.7649 27.7091C 68.1468 38.7818 49.6922 72 42.3104 72C 34.9286 72 34.9286 68.3091 31.2376 68.3091C 27.5467 68.3091 27.5467 72 20.1649 72C 12.7831 72 -5.67147 38.7818 1.71035 27.7091C 9.09218 16.6363 20.1649 16.6363 27.5467 20.3272L 27.5467 9.2545C 6.80381 20.5856 2.11635 4.75159 2.11635 4.75159C 2.11635 4.75159 11.9342 -8.49879 27.5467 9.2545L 27.5467 1.87268L 34.9286 1.87268L 34.9286 20.3272C 42.3104 16.6363 53.3831 16.6363 60.7649 27.7091Z"/>
</defs>
</svg>
