<svg width="42" height="19" viewBox="0 0 42 19" version="1.1" xmlns="http://www.w3.org/2000/svg"
     xmlns:xlink="http://www.w3.org/1999/xlink">
    <g id="Canvas" transform="translate(-1533 -2121)">
        <g id="Vector">
            <use xlink:href="#path0_fill" transform="translate(1533 2121)" fill="#555"/>
        </g>
    </g>
    <defs>
        <path id="path0_fill"
              d="M 32.55 -2.00272e-07C 30.03 -2.00272e-07 27.65 0.979999 25.9525 2.6775L 13.65 13.5975C 12.53 14.7175 11.0425 15.33 9.45 15.33C 6.1775 15.33 3.5 12.6875 3.5 9.415C 3.5 6.1425 6.1775 3.5 9.45 3.5C 11.0425 3.5 12.53 4.1125 13.72 5.3025L 15.6975 7.0525L 18.375 4.7075L 16.135 2.765C 14.35 0.98 11.97 -2.00272e-07 9.45 -2.00272e-07C 4.235 -2.00272e-07 0 4.235 0 9.415C 0 14.595 4.235 18.83 9.45 18.83C 11.97 18.83 14.35 17.85 16.0475 16.1525L 28.35 5.2325C 29.47 4.1125 30.9575 3.5 32.55 3.5C 35.8225 3.5 38.5 6.1425 38.5 9.415C 38.5 12.6875 35.8225 15.33 32.55 15.33C 30.975 15.33 29.47 14.7175 28.28 13.5275L 26.25 11.76L 23.625 14.105L 25.865 16.065C 27.65 17.8325 30.0125 18.8125 32.55 18.8125C 37.765 18.8125 42 14.595 42 9.415C 42 4.165 37.765 -2.00272e-07 32.55 -2.00272e-07Z"/>
    </defs>
</svg>
