<svg width="29" height="32" viewBox="0 0 29 32" version="1.1" xmlns="http://www.w3.org/2000/svg"
     xmlns:xlink="http://www.w3.org/1999/xlink">
    <g id="Canvas" transform="translate(-1888 -2114)">
        <g id="Vector">
            <use xlink:href="#path0_fill" transform="translate(1888 2114)" fill="#555"/>
        </g>
    </g>
    <defs>
        <path id="path0_fill"
              d="M 6.4 14.4L 14.4 14.4L 14.4 22.4L 6.4 22.4L 6.4 14.4ZM 25.6 28.8L 3.2 28.8L 3.2 11.2L 25.6 11.2L 25.6 28.8ZM 25.6 3.2L 24 3.2L 24 0L 20.8 0L 20.8 3.2L 8 3.2L 8 0L 4.8 0L 4.8 3.2L 3.2 3.2C 1.424 3.2 0 4.64 0 6.4L 0 28.8C 7.10543e-16 29.6487 0.337142 30.4626 0.937258 31.0627C 1.53737 31.6629 2.35131 32 3.2 32L 25.6 32C 26.4487 32 27.2626 31.6629 27.8627 31.0627C 28.4629 30.4626 28.8 29.6487 28.8 28.8L 28.8 6.4C 28.8 5.55131 28.4629 4.73737 27.8627 4.13726C 27.2626 3.53714 26.4487 3.2 25.6 3.2Z"/>
    </defs>
</svg>
